<?xml version="1.0" standalone="no"?><!DOCTYPE svg PUBLIC "-//W3C//DTD SVG 1.1//EN" "http://www.w3.org/Graphics/SVG/1.1/DTD/svg11.dtd"><svg t="1553754925033" class="icon" style="" viewBox="0 0 1024 1024" version="1.1" xmlns="http://www.w3.org/2000/svg" p-id="4965" xmlns:xlink="http://www.w3.org/1999/xlink" width="128" height="128"><defs><style type="text/css"></style></defs><path d="M661.265673 659.33532m-30.169889 30.16989a42.666667 42.666667 0 1 0 60.339778-60.339779 42.666667 42.666667 0 1 0-60.339778 60.339779Z" fill="#e98f36" p-id="4966"></path><path d="M410.666667 363.946667a32 32 0 0 1-32-32v-114.56a32 32 0 0 1 64 0v114.56a32 32 0 0 1-32 32zM410.666667 601.386667a32 32 0 0 1-32-32v-114.773334a32 32 0 1 1 64 0v114.56a32 32 0 0 1-32 32.213334zM410.666667 838.613333a32 32 0 0 1-32-32v-112a32 32 0 0 1 64 0v112a32 32 0 0 1-32 32z" fill="#e98f36" p-id="4967"></path><path d="M689.706667 847.786667H279.04a126.506667 126.506667 0 0 1-126.506667-126.506667V640a87.893333 87.893333 0 0 1 56.96-83.413333 46.933333 46.933333 0 0 0 0-88.32 88.106667 88.106667 0 0 1-56.96-83.413334v-82.133333a126.506667 126.506667 0 0 1 126.506667-126.506667h465.92a126.506667 126.506667 0 0 1 126.506667 126.506667V426.666667a41.173333 41.173333 0 0 1-12.586667 29.653333 40.32 40.32 0 0 1-30.08 11.52h-3.84a46.933333 46.933333 0 0 0 0 93.653333h3.84a40.32 40.32 0 0 1 30.08 11.52 41.173333 41.173333 0 0 1 12.586667 29.653334v137.6a41.173333 41.173333 0 0 1-82.133334 0v-103.466667a129.066667 129.066667 0 0 1 0-247.04v-87.04a44.373333 44.373333 0 0 0-44.16-44.16H279.04A44.373333 44.373333 0 0 0 234.666667 302.72v82.986667a7.466667 7.466667 0 0 0 2.346666 5.973333 129.066667 129.066667 0 0 1 0 243.2 7.466667 7.466667 0 0 0-2.346666 5.12v80.213333a44.373333 44.373333 0 0 0 44.16 44.16h410.88a41.173333 41.173333 0 1 1 0 82.133334z" fill="#e98f36" p-id="4968"></path></svg>